<?xml version="1.0" encoding="utf-8"?>
<!-- Generator: Adobe Illustrator 24.1.0, SVG Export Plug-In . SVG Version: 6.00 Build 0)  -->
<svg version="1.1" id="Layer_1" xmlns="http://www.w3.org/2000/svg" xmlns:xlink="http://www.w3.org/1999/xlink" x="0px" y="0px"
	 viewBox="0 0 172.68 47.23" style="enable-background:new 0 0 172.68 47.23;" xml:space="preserve">
<style type="text/css">
	.st0{fill:#5B6670;}
	.st1{fill:#DB0032;}
</style>
<path class="st0" d="M169.02,29.1c0.86,0.61,2.08,0.84,3.66,0.69v5.49c-3.27,0.32-5.88-0.22-7.83-1.62
	c-1.95-1.4-2.93-3.66-2.93-6.78V2.98l5.8-2.98v8.44h4.95v4.81h-4.95v13.26C167.73,27.62,168.16,28.49,169.02,29.1 M42.9,35.23V13.39
	c2.07-0.53,3.62-0.8,4.65-0.8c2.5,0,4.54,0.56,6.15,1.68c1.6,1.12,2.41,2.94,2.41,5.46v15.5h5.8V19.82c0-2.82-0.64-5.16-1.93-7.02
	c-1.29-1.85-2.92-3.16-4.9-3.92c-1.98-0.76-4.31-1.14-6.99-1.14c-3.89,0-7.56,0.59-10.99,1.75v25.74H42.9z M82.39,15.28
	c-1.51-1.83-3.56-2.74-6.15-2.74c-1.81,0.07-3.43,0.24-4.85,0.52v16.2c3.3,1.58,6.32,1.5,9.05-0.24c2.73-1.74,4.12-4.28,4.15-7.63
	C84.63,19.15,83.89,17.11,82.39,15.28 M71.39,40.72l-5.8,3.12V9.3c3.12-1.08,6.67-1.62,10.65-1.62c4.35,0,7.8,1.38,10.37,4.14
	c2.57,2.76,3.83,6,3.8,9.71c0,3.04-0.87,5.82-2.62,8.33c-1.75,2.51-4.03,4.25-6.86,5.2c-2.83,0.96-6.01,0.87-9.53-0.27V40.72z
	 M16.8,15.28c-1.51-1.83-3.56-2.74-6.15-2.74c-1.81,0.07-3.42,0.24-4.84,0.52v16.2c3.3,1.58,6.32,1.5,9.05-0.24
	c2.73-1.74,4.12-4.28,4.15-7.63C19.04,19.15,18.31,17.11,16.8,15.28 M5.8,44.14L0,47.23V9.3c3.12-1.08,6.67-1.62,10.65-1.62
	c4.35,0,7.8,1.38,10.37,4.14c2.57,2.76,3.83,6,3.8,9.71c0,3.04-0.87,5.82-2.62,8.33c-1.75,2.51-4.03,4.25-6.86,5.2
	S9.33,35.94,5.8,34.8V44.14z M123.94,35.23h5.8v-23.8l-5.8,3.07V35.23z M139.23,35.23V13.39c2.07-0.53,3.62-0.8,4.65-0.8
	c2.49,0,4.54,0.56,6.15,1.68c1.6,1.12,2.41,2.94,2.41,5.46v15.5h5.8V19.82c0-2.82-0.64-5.16-1.93-7.02
	c-1.29-1.85-2.92-3.16-4.9-3.92c-1.98-0.76-4.31-1.14-6.99-1.14c-3.89,0-7.56,0.59-10.99,1.75v25.74H139.23z M27.61,35.23h5.8V9.52
	h-5.8V35.23z"/>
<path class="st1" d="M114.55,17.8l4.94-2.63c-2.36-4.39-6.99-7.38-12.32-7.38c-7.72,0-13.98,6.26-13.98,13.98
	c0,1.56,0.27,3.06,0.74,4.47h6.12c-0.82-1.3-1.31-2.82-1.31-4.47c0-4.65,3.77-8.42,8.42-8.42C110.38,13.35,113.13,15.16,114.55,17.8
	z M121.15,21.78c0-1.85-0.37-3.61-1.02-5.23l-4.98,2.65c0.26,0.82,0.45,1.67,0.45,2.58c0,4.65-3.77,8.42-8.42,8.42
	c-2.93,0-5.5-1.5-7.01-3.76l-3.15,4.92c2.55,2.7,6.15,4.4,10.16,4.4C114.89,35.76,121.15,29.5,121.15,21.78 M129.75,8.08v1.66
	l-5.8,3.09v-1.68L129.75,8.08z M71.39,42.45v1.66l-5.8,3.09v-1.68L71.39,42.45z"/>
</svg>
